HIERARCHY
ROOT joint_0
{
	OFFSET 0.000000 0.000000 0.000000
	CHANNELS 6 Xposition Yposition Zposition Zrotation Yrotation Xrotation 
	JOINT joint_1
	{
		OFFSET 0.511002 1.944000 108.288940
		CHANNELS 3 Zrotation Yrotation Xrotation
		JOINT joint_2
		{
			OFFSET -9.074005 1.512993 98.440063
			CHANNELS 3 Zrotation Yrotation Xrotation
			JOINT joint_3
			{
				OFFSET -8.590996 1.815002 98.366943
				CHANNELS 3 Zrotation Yrotation Xrotation
				JOINT joint_4
				{
					OFFSET 2.489998 3.531998 136.462036
					CHANNELS 3 Zrotation Yrotation Xrotation
					JOINT joint_5
					{
						OFFSET 22.708000 2.955002 80.357056
						CHANNELS 3 Zrotation Yrotation Xrotation
						End Site
						{
							OFFSET 0.000000 0.000000 0.000000
						}
					}
				}
				JOINT joint_6
				{
					OFFSET 2.860001 -27.684998 77.234009
					CHANNELS 3 Zrotation Yrotation Xrotation
					JOINT joint_7
					{
						OFFSET 5.449997 -131.244003 -18.851929
						CHANNELS 3 Zrotation Yrotation Xrotation
						JOINT joint_8
						{
							OFFSET 35.757000 -24.661995 -264.074097
							CHANNELS 3 Zrotation Yrotation Xrotation
							JOINT joint_9
							{
								OFFSET 49.392001 -1.747002 -239.960938
								CHANNELS 3 Zrotation Yrotation Xrotation
								End Site
								{
									OFFSET 0.000000 0.000000 0.000000
								}
							}
						}
					}
				}
				JOINT joint_10
				{
					OFFSET -0.127998 31.625000 75.753052
					CHANNELS 3 Zrotation Yrotation Xrotation
					JOINT joint_11
					{
						OFFSET -5.618004 131.132996 -19.557007
						CHANNELS 3 Zrotation Yrotation Xrotation
						JOINT joint_12
						{
							OFFSET 46.488998 30.127991 -261.826050
							CHANNELS 3 Zrotation Yrotation Xrotation
							JOINT joint_13
							{
								OFFSET 66.021003 0.474030 -235.934937
								CHANNELS 3 Zrotation Yrotation Xrotation
								End Site
								{
									OFFSET 0.000000 0.000000 0.000000
								}
							}
						}
					}
				}
			}
		}
	}
	JOINT joint_14
	{
		OFFSET 15.887001 -78.871004 -94.561035
		CHANNELS 3 Zrotation Yrotation Xrotation
		JOINT joint_15
		{
			OFFSET -4.133003 6.714001 -473.615967
			CHANNELS 3 Zrotation Yrotation Xrotation
			JOINT joint_16
			{
				OFFSET -19.541000 5.340000 -399.613007
				CHANNELS 3 Zrotation Yrotation Xrotation
				JOINT joint_17
				{
					OFFSET 164.317001 41.657999 -73.195000
					CHANNELS 3 Zrotation Yrotation Xrotation
					End Site
					{
						OFFSET 0.000000 0.000000 0.000000
					}
				}
			}
		}
	}
	JOINT joint_18
	{
		OFFSET 6.513000 77.960991 -96.406982
		CHANNELS 3 Zrotation Yrotation Xrotation
		JOINT joint_19
		{
			OFFSET -10.660004 -8.518997 -473.485016
			CHANNELS 3 Zrotation Yrotation Xrotation
			JOINT joint_20
			{
				OFFSET -36.967995 -11.098999 -398.260010
				CHANNELS 3 Zrotation Yrotation Xrotation
				JOINT joint_21
				{
					OFFSET 166.067997 30.363998 -74.785000
					CHANNELS 3 Zrotation Yrotation Xrotation
					End Site
					{
						OFFSET 0.000000 0.000000 0.000000
					}
				}
			}
		}
	}
}
MOTION
Frames: 11
Frame Time: 0.016667
-2272.052490 834.717957 1039.198975 -2.418634 5.394350 -4.619864 -2.630888 5.237915 6.306645 1.396941 -0.665868 -1.194755 2.257581 0.897558 0.755498 -0.067645 -14.442666 2.912127 0.000000 0.000000 0.000000 1.601767 -12.993686 -1.269221 -21.601937 -2.932452 -14.182709 176.237146 -52.365376 -156.427078 0.000000 0.000000 0.000000 -8.564736 15.139488 -1.748607 31.537237 -4.564001 14.385732 177.384801 -34.655178 174.322873 0.000000 0.000000 0.000000 -5.169017 -15.472219 -3.611871 -8.444559 24.395618 -0.634475 -12.625602 -8.132397 -2.928426 0.000000 0.000000 0.000000 -1.176255 -25.128770 31.423476 -3.588746 54.065829 -24.276570 -2.763575 5.264024 -2.713864 0.000000 0.000000 0.000000 
-2254.487549 837.813110 1040.129028 -2.209812 5.536755 -5.113972 -2.483963 4.629963 6.629650 1.075004 -0.583650 -1.276384 1.996846 0.782618 0.854125 -0.101115 -14.200188 3.057421 0.000000 0.000000 0.000000 1.278282 -11.368894 -1.079327 -22.093382 -3.349293 -14.678766 174.618398 -53.197939 -156.107965 0.000000 0.000000 0.000000 -8.047227 13.989990 -1.934289 31.141892 -4.483130 15.379541 176.995832 -35.600276 173.483824 0.000000 0.000000 0.000000 -5.476977 -14.407546 -3.561151 -8.361735 24.248004 -0.258361 -12.393858 -8.042063 -2.860626 0.000000 0.000000 0.000000 -1.516582 -25.086683 31.956506 -3.573663 51.427979 -24.283908 -2.976327 6.084623 -2.933262 0.000000 0.000000 0.000000 
-2237.224121 841.562012 1040.958984 -2.156300 5.777506 -5.420210 -2.140711 3.694145 6.680492 0.689256 -0.461980 -1.287662 1.533496 0.578698 0.916027 -0.130510 -13.750014 3.186262 0.000000 0.000000 0.000000 0.963109 -10.319414 -0.928820 -21.957898 -3.656058 -14.587250 173.719648 -55.086724 -155.870463 0.000000 0.000000 0.000000 -7.618828 13.126603 -2.064872 30.919116 -4.432032 16.036567 177.022438 -36.695761 172.531279 0.000000 0.000000 0.000000 -5.796982 -13.462437 -3.486761 -8.365765 23.901317 -0.298873 -12.286539 -7.900104 -2.851726 0.000000 0.000000 0.000000 -1.313192 -25.362181 31.833186 -3.145450 49.199491 -23.591400 -2.199615 5.710771 -2.501539 0.000000 0.000000 0.000000 
-2219.688965 846.091064 1041.796021 -2.104722 6.053509 -5.570115 -1.713217 2.509167 6.553337 0.241346 -0.304073 -1.255984 0.936587 0.311977 0.961277 -0.161670 -13.153652 3.284399 0.000000 0.000000 0.000000 0.629632 -9.558101 -0.867748 -21.385158 -3.906845 -14.188438 173.466887 -57.663049 -155.809070 0.000000 0.000000 0.000000 -7.211678 12.290785 -2.156105 30.841611 -4.427542 16.506849 177.368299 -38.106709 171.273375 0.000000 0.000000 0.000000 -6.116797 -12.615181 -3.563026 -8.401234 23.594208 -0.468151 -12.233966 -7.609722 -2.897577 0.000000 0.000000 0.000000 -0.881652 -25.645413 31.146830 -2.454725 46.946246 -22.372868 -0.984819 4.805543 -1.781055 0.000000 0.000000 0.000000 
-2203.063965 851.485901 1042.239990 -1.847400 6.189572 -5.558826 -1.538586 1.732114 6.333867 -0.169162 -0.194608 -1.218137 0.453264 0.149551 0.956363 -0.178712 -12.644231 3.270084 0.000000 0.000000 0.000000 0.232151 -9.487423 -0.893055 -20.985658 -4.459504 -13.554195 173.618769 -60.432895 -155.158972 0.000000 0.000000 0.000000 -6.708877 10.729822 -1.974059 30.804495 -4.584763 16.396655 177.986656 -40.157280 169.406322 0.000000 0.000000 0.000000 -6.233875 -12.375792 -4.160551 -8.261460 24.679316 -0.341664 -12.233114 -7.058980 -3.008041 0.000000 0.000000 0.000000 -0.456597 -25.705522 29.875619 -1.429646 44.276912 -20.325849 0.636900 3.896703 -0.890926 0.000000 0.000000 0.000000 
-2187.653809 858.099426 1042.266968 -1.107414 6.039906 -5.183488 -1.690184 1.704116 5.775058 -0.579122 -0.221316 -1.084452 -0.002479 0.220024 0.897450 -0.165715 -12.357933 3.110410 0.000000 0.000000 0.000000 -0.297251 -10.475635 -0.835827 -21.184958 -5.575159 -12.701995 173.903867 -63.235412 -152.882432 0.000000 0.000000 0.000000 -6.023935 7.883349 -1.631003 30.820639 -5.155248 15.678255 178.860081 -43.165723 166.607424 0.000000 0.000000 0.000000 -6.074148 -12.795010 -5.678145 -7.776855 27.612034 0.240628 -12.121902 -5.769949 -3.223800 0.000000 0.000000 0.000000 0.021154 -25.390340 27.517958 0.131192 40.345054 -16.752140 2.856263 3.538007 0.146353 0.000000 0.000000 0.000000 
-2173.154541 865.577637 1041.900024 -0.261571 5.643283 -4.595890 -1.874399 2.248800 4.992295 -0.956264 -0.393313 -0.895746 -0.490293 0.427178 0.815527 -0.136733 -12.191047 2.895009 0.000000 0.000000 0.000000 -0.858931 -12.188327 -0.645547 -21.720395 -6.999951 -11.688804 174.134667 -66.287639 -149.531613 0.000000 0.000000 0.000000 -5.275379 4.397473 -1.374200 31.062554 -6.091108 14.501634 -179.772983 -46.810463 162.813251 0.000000 0.000000 0.000000 -5.715659 -13.643576 -7.808505 -6.963514 31.685674 1.255478 -11.756916 -3.689078 -3.494652 0.000000 0.000000 0.000000 0.666437 -24.536446 24.445822 2.026817 35.563838 -12.273241 5.218822 3.757035 1.136576 0.000000 0.000000 0.000000 
-2159.834229 872.937256 1040.810059 0.073395 5.230744 -4.264123 -1.862664 3.016300 4.570010 -1.168136 -0.594536 -0.860418 -0.815957 0.633545 0.747462 -0.116198 -12.046157 2.711294 0.000000 0.000000 0.000000 -1.266148 -13.939127 -0.501769 -22.069800 -8.385404 -10.705627 174.253131 -69.641741 -146.814986 0.000000 0.000000 0.000000 -4.705927 1.387771 -1.053601 31.194538 -6.929761 12.790717 -178.072253 -50.597497 158.812160 0.000000 0.000000 0.000000 -5.217942 -15.180702 -9.909090 -5.941134 36.610309 2.796013 -11.288297 -1.348025 -3.740908 0.000000 0.000000 0.000000 1.161726 -23.321682 21.952067 3.658193 31.916978 -8.596763 7.107227 3.580863 1.986087 0.000000 0.000000 0.000000 
-2148.241699 880.191650 1038.422974 -0.223879 4.984308 -4.297546 -1.636224 3.713564 4.537519 -1.203568 -0.659777 -0.922019 -0.923051 0.777477 0.723111 -0.117171 -11.870307 2.560952 0.000000 0.000000 0.000000 -1.487722 -15.633194 -0.563779 -21.901755 -9.774978 -9.759508 174.327110 -73.508281 -145.703623 0.000000 0.000000 0.000000 -4.448209 -0.728166 -0.238172 30.293221 -7.384152 10.123513 -177.004713 -54.870503 156.032790 0.000000 0.000000 0.000000 -4.560181 -17.941179 -12.020168 -4.642569 43.023911 5.178180 -10.872011 1.765356 -4.105422 0.000000 0.000000 0.000000 1.164124 -22.182003 20.382080 4.806522 31.145958 -6.291132 8.788484 1.617932 3.033565 0.000000 0.000000 0.000000 
-2137.828125 887.327393 1035.312012 -0.722796 4.775512 -4.288051 -1.227950 4.547075 4.307997 -1.231651 -0.716910 -0.848229 -1.011846 0.915085 0.729014 -0.131033 -11.714698 2.433751 0.000000 0.000000 0.000000 -1.545950 -17.303805 -0.673193 -21.487129 -11.249656 -8.921611 174.441842 -77.581956 -145.516601 0.000000 0.000000 0.000000 -4.377506 -2.306903 0.725241 28.208948 -7.749719 7.289984 -176.940451 -59.912216 155.347886 0.000000 0.000000 0.000000 -3.964857 -21.416691 -14.372644 -3.092965 49.896100 7.885245 -10.484330 6.041235 -4.655953 0.000000 0.000000 0.000000 0.911298 -21.003309 18.963047 5.685299 31.894816 -4.664346 10.493221 -1.266590 4.223465 0.000000 0.000000 0.000000 
-2127.220947 893.316895 1032.864990 -1.162702 4.607918 -4.022185 -0.696078 5.476778 3.796472 -1.310264 -0.849914 -0.694531 -1.138022 1.059946 0.708421 -0.149708 -11.614154 2.314872 0.000000 0.000000 0.000000 -1.424876 -18.450268 -0.760447 -21.130681 -12.490149 -8.371848 174.671667 -80.981138 -145.585517 0.000000 0.000000 0.000000 -4.367800 -3.368077 1.282850 25.821389 -8.141989 5.580439 -177.290500 -64.854340 156.516955 0.000000 0.000000 0.000000 -3.750231 -24.766755 -16.488672 -1.692337 55.320536 9.772691 -10.342976 9.242672 -5.026363 0.000000 0.000000 0.000000 0.787172 -19.635728 17.496767 6.377519 32.076821 -3.488079 11.780788 -3.648859 5.159169 0.000000 0.000000 0.000000 
